<svg width="59" height="77" viewBox="0 0 59 77" fill="none" xmlns="http://www.w3.org/2000/svg">
    <g transform="translate(0,0)">

        <g className="1">
            <path d="M21.2965 31.6611H0.384766V29.1373L12.6884 16.6534C13.4696 15.8421 14.1456 15.1361 14.7165 14.5352C15.2874 13.9042 15.7381 13.3333 16.0686 12.8226C16.4291 12.2817 16.6845 11.7559 16.8347 11.2452C16.985 10.7044 17.0601 10.1034 17.0601 9.44244C17.0601 8.6913 16.9399 7.94016 16.6995 7.18902C16.4592 6.40783 16.0686 5.71678 15.5277 5.11587C15.017 4.51496 14.356 4.03423 13.5447 3.67368C12.7335 3.28309 11.772 3.0878 10.6604 3.0878C8.67734 3.0878 7.13 3.7488 6.01831 5.0708C4.90662 6.36276 4.35078 8.1655 4.35078 10.479H0.610105C0.610105 8.79646 0.880517 7.3092 1.42134 6.01724C1.9922 4.72528 2.72832 3.64364 3.62969 2.77232C4.5611 1.90099 5.62772 1.23999 6.82954 0.789306C8.06141 0.338623 9.33835 0.113281 10.6604 0.113281C12.2828 0.113281 13.74 0.368669 15.032 0.879444C16.3239 1.36017 17.4056 2.02117 18.2769 2.86245C19.1482 3.67368 19.8092 4.62012 20.2599 5.70176C20.7406 6.75336 20.981 7.85002 20.981 8.99175C20.981 9.95321 20.8308 10.8546 20.5303 11.6959C20.2599 12.5371 19.8393 13.3784 19.2684 14.2197C18.6976 15.061 17.9765 15.9623 17.1051 16.9238C16.2338 17.8552 15.2123 18.9218 14.0405 20.1236L5.61269 28.6866H21.2965V31.6611Z" fill="black"/>
            <animateTransform attributeName="transform"
                    type="rotate"
                    from="0 9.5 15"
                    to="-360 9.5 15"
                    begin="0s"
                    dur="5s"
                    repeatCount="indefinite"
            />              
        </g>

        <g className="2">
            <path d="M46.4666 32.1118C44.6037 32.1118 42.9212 31.7212 41.4189 30.94C39.9467 30.1589 38.6998 29.0772 37.6782 27.6951C36.6567 26.283 35.8755 24.6004 35.3347 22.6475C34.7938 20.6645 34.5234 18.4862 34.5234 16.1126C34.5234 13.739 34.7938 11.5757 35.3347 9.62271C35.8755 7.6397 36.6567 5.95715 37.6782 4.57505C38.6998 3.16291 39.9467 2.06625 41.4189 1.28506C42.9212 0.503874 44.6037 0.113281 46.4666 0.113281C48.3294 0.113281 50.0119 0.503874 51.5142 1.28506C53.0165 2.06625 54.2784 3.16291 55.3 4.57505C56.3215 5.95715 57.1027 7.6397 57.6435 9.62271C58.1843 11.5757 58.4547 13.739 58.4547 16.1126C58.4547 18.4862 58.1843 20.6645 57.6435 22.6475C57.1027 24.6004 56.3215 26.283 55.3 27.6951C54.2784 29.0772 53.0165 30.1589 51.5142 30.94C50.0119 31.7212 48.3294 32.1118 46.4666 32.1118ZM46.4666 29.1373C48.9904 29.1373 50.9433 27.9655 52.3254 25.622C53.7075 23.2484 54.3986 20.0786 54.3986 16.1126C54.3986 12.1465 53.7075 8.99175 52.3254 6.6482C50.9433 4.2746 48.9904 3.0878 46.4666 3.0878C43.9427 3.0878 41.9898 4.25957 40.6077 6.60313C39.2556 8.94668 38.5796 12.1165 38.5796 16.1126C38.5796 20.1086 39.2556 23.2784 40.6077 25.622C41.9898 27.9655 43.9427 29.1373 46.4666 29.1373Z" fill="black"/>
            <animateTransform attributeName="transform"
                    type="rotate"
                    from="0 45.5 15"
                    to="-360 45.5 15"
                    begin="0s"
                    dur="5s"
                    repeatCount="indefinite"
            />          
        </g>

        <g className="3">
            <path d="M21.2965 76.4346H0.384766V73.9108L12.6884 61.4268C13.4696 60.6156 14.1456 59.9095 14.7165 59.3086C15.2874 58.6776 15.7381 58.1068 16.0686 57.596C16.4291 57.0552 16.6845 56.5294 16.8347 56.0186C16.985 55.4778 17.0601 54.8769 17.0601 54.2159C17.0601 53.4647 16.9399 52.7136 16.6995 51.9625C16.4592 51.1813 16.0686 50.4902 15.5277 49.8893C15.017 49.2884 14.356 48.8077 13.5447 48.4471C12.7335 48.0565 11.772 47.8612 10.6604 47.8612C8.67735 47.8612 7.13 48.5222 6.01832 49.8442C4.90663 51.1362 4.35078 52.9389 4.35078 55.2524H0.61011C0.61011 53.5699 0.880522 52.0826 1.42134 50.7907C1.99221 49.4987 2.72833 48.4171 3.6297 47.5458C4.56111 46.6744 5.62773 46.0134 6.82955 45.5627C8.06142 45.1121 9.33835 44.8867 10.6604 44.8867C12.2828 44.8867 13.74 45.1421 15.032 45.6529C16.3239 46.1336 17.4056 46.7946 18.2769 47.6359C19.1482 48.4471 19.8092 49.3936 20.2599 50.4752C20.7407 51.5268 20.981 52.6235 20.981 53.7652C20.981 54.7266 20.8308 55.628 20.5303 56.4693C20.2599 57.3106 19.8393 58.1518 19.2684 58.9931C18.6976 59.8344 17.9765 60.7358 17.1051 61.6972C16.2338 62.6286 15.2123 63.6953 14.0405 64.8971L5.6127 73.4601H21.2965V76.4346Z" fill="black"/>
            <animateTransform attributeName="transform"
                    type="rotate"
                    from="0 9.5 60"
                    to="-360 9.5 60"
                    begin="0s"
                    dur="5s"
                    repeatCount="indefinite"
                    
            />
        </g>
        <g className="4">
            <path d="M47.048 76.7624C52.6983 76.7624 57.1474 73.4848 57.1474 67.7945C57.1474 62.9691 53.5881 60.8295 49.406 60.1012V60.0101C53.3212 59.3273 56.569 56.8236 56.569 52.8631C56.569 47.4914 52.5203 44.4414 46.692 44.4414C41.887 44.4414 37.6604 47.4459 37.0376 53.5459H40.7303C41.0862 49.7676 42.9993 47.4459 46.959 47.4459C50.6517 47.4459 52.5648 49.631 52.5648 52.5444C52.5648 57.0512 49.8064 58.3713 43.7112 58.5534V61.5579C50.0288 61.74 53.1432 63.2422 53.1432 68.1587C53.1432 71.5729 50.7852 73.758 47.4039 73.758C42.3764 73.758 40.8193 70.5259 40.3744 66.8385H36.6816C37.349 73.3027 41.6646 76.7624 47.048 76.7624Z" fill="black"/>
            <animateTransform attributeName="transform"
                    type="rotate"
                    from="0 45.5 60"
                    to="-360 45.5 60"
                    begin="0s"
                    dur="5s"
                    repeatCount="indefinite"
            />
        </g>

        <g className="5">
            <path d="M29.6126 54.5962C27.4192 54.5962 25.3461 54.1756 23.3931 53.3343C21.4402 52.493 19.7426 51.3513 18.3004 49.9091C16.8582 48.4669 15.7165 46.7693 14.8752 44.8164C14.0339 42.8634 13.6133 40.7903 13.6133 38.5969C13.6133 36.4036 14.0339 34.3305 14.8752 32.3775C15.7165 30.4245 16.8582 28.727 18.3004 27.2848C19.7426 25.8426 21.4402 24.7008 23.3931 23.8596C25.3461 23.0183 27.4192 22.5977 29.6126 22.5977C31.8059 22.5977 33.879 23.0183 35.832 23.8596C37.785 24.7008 39.4825 25.8426 40.9247 27.2848C42.3669 28.727 43.5086 30.4245 44.3499 32.3775C45.1912 34.3305 45.6118 36.4036 45.6118 38.5969C45.6118 40.7903 45.1912 42.8634 44.3499 44.8164C43.5086 46.7693 42.3669 48.4669 40.9247 49.9091C39.4825 51.3513 37.785 52.493 35.832 53.3343C33.879 54.1756 31.8059 54.5962 29.6126 54.5962ZM29.6126 51.6668C31.4153 51.6668 33.1129 51.3212 34.7053 50.6302C36.2977 49.9391 37.6798 49.0077 38.8516 47.8359C40.0233 46.6642 40.9548 45.2821 41.6458 43.6897C42.3369 42.0972 42.6824 40.3997 42.6824 38.5969C42.6824 36.7942 42.3369 35.0966 41.6458 33.5042C40.9548 31.9118 40.0233 30.5297 38.8516 29.3579C37.6798 28.1861 36.2977 27.2547 34.7053 26.5637C33.1129 25.8726 31.4153 25.5271 29.6126 25.5271C27.8098 25.5271 26.1122 25.8726 24.5198 26.5637C22.9274 27.2547 21.5453 28.1861 20.3735 29.3579C19.2018 30.5297 18.2703 31.9118 17.5793 33.5042C16.8882 35.0966 16.5427 36.7942 16.5427 38.5969C16.5427 40.3997 16.8882 42.0972 17.5793 43.6897C18.2703 45.2821 19.2018 46.6642 20.3735 47.8359C21.5453 49.0077 22.9274 49.9391 24.5198 50.6302C26.1122 51.3212 27.8098 51.6668 29.6126 51.6668ZM20.9144 38.5068C20.9144 37.1547 21.1247 35.8778 21.5453 34.676C21.966 33.4742 22.5518 32.4376 23.303 31.5663C24.0842 30.6649 25.0006 29.9588 26.0522 29.448C27.1338 28.9373 28.3206 28.6819 29.6126 28.6819C31.866 28.6819 33.7288 29.3579 35.201 30.71C36.7033 32.062 37.6197 33.8197 37.9502 35.983H34.6602C34.3898 34.5408 33.834 33.399 32.9927 32.5578C32.1514 31.7165 31.0397 31.2959 29.6576 31.2959C27.9751 31.2959 26.6831 31.9719 25.7817 33.3239C24.9104 34.6459 24.4748 36.3736 24.4748 38.5068C24.4748 40.64 24.9405 42.3977 25.8719 43.7798C26.8033 45.1318 28.1403 45.8079 29.883 45.8079C31.2651 45.8079 32.3617 45.3872 33.173 44.546C33.9842 43.6746 34.54 42.5479 34.8405 41.1658H38.1305C37.7399 43.2991 36.8085 45.0417 35.3362 46.3938C33.894 47.7158 32.0312 48.3768 29.7478 48.3768C27.1638 48.3768 25.0456 47.4604 23.3931 45.6276C21.7406 43.7648 20.9144 41.3912 20.9144 38.5068Z" fill="black"/>
        </g>

                    
          <animateTransform attributeName="transform"
                    type="rotate"
                    from="0 29.5 38.5"
                    to="360 29.5 38.5"
                    begin="0s"
                    dur="10s"
                    repeatCount="indefinite"
          />

    </g>
</svg>


