<svg width="26" height="26" viewBox="0 0 26 26" fill="none" xmlns="http://www.w3.org/2000/svg">
<path fill-rule="evenodd" clip-rule="evenodd" d="M13.5299 26H12.4751L13.9254 18.1552L13.3375 15.7096L13.3714 18.4372L10.1439 25.6939L9.12509 25.4209L12.5564 18.2188L12.6209 15.7257L11.953 18.3485L6.95723 24.5227L6.04378 23.9953L11.2222 17.9266L11.9319 15.5279L10.605 17.8936L4.18156 22.5644L3.43573 21.8185L10.0084 17.2969L11.3118 15.1684L9.41977 17.1081L2.00628 19.9572L1.47889 19.0438L8.99787 16.3774L10.8154 14.6515L8.47783 16.0402L0.579543 16.8734L0.306549 15.8546L8.25944 15.2251L10.4557 14.0318L7.84483 14.7663L0 13.5269V12.4722L7.84483 13.9225L10.2774 13.3377L7.56284 13.3714L0.306082 10.1439L0.579076 9.12509L7.78123 12.5564L10.2743 12.6209L7.65146 11.953L1.47732 6.95723L2.0047 6.04378L8.07337 11.2222L10.4798 11.9342L8.1064 10.603L3.43563 4.17953L4.18146 3.4337L8.70307 10.0063L10.8316 11.3098L8.89187 9.41774L6.04277 2.00425L6.95622 1.47686L9.62264 8.99584L11.3452 10.8099L9.95982 8.47783L9.12655 0.579543L10.1454 0.306549L10.7749 8.25944L11.9725 10.4635L11.2358 7.84483L12.4751 0H13.5299L12.0796 7.84483L12.6604 10.2609L12.6269 7.56361L15.8544 0.306853L16.8732 0.579847L13.4419 7.782L13.3771 10.2875L14.0481 7.65279L19.0438 1.47864L19.9572 2.00602L14.7788 8.07469L14.0699 10.4707L15.397 8.10454L21.8205 3.43377L22.5663 4.1796L15.9937 8.70121L14.6859 10.8368L16.5821 8.89288L23.9956 6.04378L24.5229 6.95723L17.004 9.62365L15.1955 11.3408L17.5223 9.9586L25.4206 9.12533L25.6936 10.1442L17.7407 10.7737L15.5435 11.9676L18.1552 11.2328L26 12.4722V13.5269L18.1552 12.0766L15.7261 12.6606L18.4364 12.6269L25.6931 15.8544L25.4202 16.8732L18.218 13.4419L15.7125 13.3771L18.3472 14.0481L24.5214 19.0438L23.994 19.9572L17.9253 14.7788L15.537 14.0722L17.8955 15.395L22.5662 21.8185L21.8204 22.5643L17.2988 15.9917L15.1632 14.6839L17.1071 16.58L19.9562 23.9935L19.0428 24.5209L16.3764 17.0019L14.6559 15.1901L16.0414 17.5223L16.8747 25.4206L15.8558 25.6936L15.2263 17.7407L14.0367 15.5513L14.7692 18.1552L13.5299 26Z" fill="#24FF00"/>
</svg>
